<svg xmlns="http://www.w3.org/2000/svg" class="icon" viewBox="0 0 1024 1024" width="32" height="32" t="1577628308648" p-id="4124" version="1.1"><path d="M 650.752 985.6 H 373.248 c -42.496 0 -76.8 -34.304 -76.8 -76.8 v -265.728 c 0 -0.512 -0.512 -1.024 -1.024 -1.024 H 151.04 c -36.864 0 -50.176 -22.016 -54.272 -31.232 c -4.096 -9.216 -10.752 -34.304 14.336 -60.928 l 347.136 -372.736 c 14.336 -15.36 33.792 -24.064 54.272 -24.064 s 39.936 8.704 54.272 24.064 l 347.136 372.736 c 25.088 27.136 18.432 51.712 14.336 60.928 c -4.096 9.216 -17.408 31.232 -54.272 31.232 h -144.384 c -0.512 0 -1.024 0.512 -1.024 1.024 v 265.728 c -1.024 41.984 -35.328 76.8 -77.824 76.8 Z m -482.816 -398.336 h 127.488 c 42.496 0 55.296 12.8 55.296 55.296 v 287.232 c 0 0.512 322.56 0.512 322.56 0 v -287.232 c 0 -42.496 12.8 -55.296 55.296 -55.296 h 127.488 l -344.064 -378.88 l -344.064 378.88 Z m 718.336 -488.96 l -747.52 0.512 c -20.992 0 -37.888 -9.216 -37.888 -30.208 c 0 -20.992 16.896 -30.208 37.888 -30.208 h 746.496 c 20.992 0 37.888 9.216 37.888 30.208 c 0 20.992 -15.872 29.696 -36.864 29.696 Z" p-id="4125" /></svg>