<?xml version="1.0" standalone="no"?><!DOCTYPE svg PUBLIC "-//W3C//DTD SVG 1.1//EN" "http://www.w3.org/Graphics/SVG/1.1/DTD/svg11.dtd"><svg class="icon" width="16px" height="16.00px" viewBox="0 0 1024 1024" version="1.1" xmlns="http://www.w3.org/2000/svg"><path d="M980.8896 407.7568l-63.5904-63.5904v-90.0096c0-81.408-65.9456-147.3536-147.3536-147.3536H679.936l-63.6928-63.6928C558.6944-14.336 465.3056-14.336 407.8592 43.1104l-63.6928 63.6928h-90.0096c-81.408 0-147.3536 65.9456-147.3536 147.3536v90.0096l-63.5904 63.5904c-57.5488 57.5488-57.5488 150.8352 0 208.384l63.5904 63.5904v90.0096c0 81.408 65.9456 147.3536 147.3536 147.3536h90.0096l63.6928 63.6928c57.5488 57.5488 150.8352 57.5488 208.384 0l63.6928-63.6928h90.0096c81.408 0 147.3536-65.9456 147.3536-147.3536v-90.0096l63.5904-63.5904c57.4464-57.5488 57.4464-150.8352 0-208.384zM677.4784 556.6464l35.5328 212.48-203.4688-100.864-205.6192 96.9728 39.8336-211.7632-162.4064-152.576 228.1472-30.0032 105.3696-191.1808 101.0688 193.2288 227.4304 34.304-165.888 149.4016z" /></svg>