<?xml version="1.0" standalone="no"?><!DOCTYPE svg PUBLIC "-//W3C//DTD SVG 1.1//EN" "http://www.w3.org/Graphics/SVG/1.1/DTD/svg11.dtd"><svg class="icon" width="16px" height="16.00px" viewBox="0 0 1024 1024" version="1.1" xmlns="http://www.w3.org/2000/svg"><path d="M528.320512 16.390144l80.946176 91.136 113.664-34.816 26.624 118.784 115.712 27.648-35.84 118.784 88.064 81.599488-87.04 83.264512 34.816 118.784-115.712 27.174912L722.90304 770.054144l-34.7904-13.312 0 218.112-159.792128-131.072-159.696896 131.072 0-219.136-36.864 13.312-24.576-120.281088-116.736-28.198912 34.816-116.736-87.04-84.288512 88.064-83.647488-35.84-116.736 116.736-27.648 25.6-120.832 113.664 35.84L528.320512 16.390144zM460.27264 156.678144l-97.28-32.768-23.552 102.4-96.256 23.552 29.696 99.328-74.752 70.335488 73.728 70.976512-29.696 99.328 98.304 23.552 27.648 103.424 41.984 0 0 167.936 118.272-95.744 117.248 95.744 0-167.936 41.984 0 25.6-103.424 99.328-24.576-29.696-99.328 74.752-69.952512-75.776-71.359488 29.696-98.304-97.28-24.576-21.504-100.352-97.28 31.744-68.096-76.8L460.27264 156.678144zM527.855616 171.53024c-139.122688 0-251.904 112.781312-251.904 251.904 0 139.122688 112.780288 251.904 251.904 251.904s251.906048-112.781312 251.906048-251.904C779.761664 284.311552 666.979328 171.53024 527.855616 171.53024zM738.801664 423.43424c0 116.501504-94.44352 210.944-210.944 210.944-116.502528 0-210.944-94.442496-210.944-210.944 0-116.501504 94.442496-210.944 210.944-210.944C644.35712 212.49024 738.801664 306.93376 738.801664 423.43424z" /></svg>