<?xml version="1.0" standalone="no"?><!DOCTYPE svg PUBLIC "-//W3C//DTD SVG 1.1//EN" "http://www.w3.org/Graphics/SVG/1.1/DTD/svg11.dtd"><svg class="icon" width="16px" height="16.00px" viewBox="0 0 1024 1024" version="1.1" xmlns="http://www.w3.org/2000/svg"><path d="M803.423232 390.516736l38.694912-99.039232c8.868864-22.711296-1.748992-48.375808-24.090624-58.167296l-97.405952-42.663936L677.972992 93.248512c-9.78432-22.334464-35.457024-32.960512-58.161152-24.090624l-99.0464 38.708224-99.0464-38.708224c-22.718464-8.884224-48.384 1.75616-58.160128 24.090624l-42.671104 97.398784-97.391616 42.663936c-22.340608 9.791488-32.966656 35.456-24.097792 58.167296l38.701056 99.039232-38.701056 99.0464c-8.869888 22.724608 1.75616 48.36864 24.097792 58.160128l97.391616 42.663936 42.671104 97.390592c7.446528 17.020928 24.090624 27.23328 41.633792 27.23328 5.50912 0 11.10528-1.00864 16.52736-3.12832l99.0464-38.70208 99.0464 38.70208c22.704128 8.877056 48.376832-1.764352 58.161152-24.10496l42.648576-97.390592 97.405952-42.663936c22.341632-9.792512 32.960512-35.43552 24.090624-58.160128L803.423232 390.516736zM520.76544 590.388224c-110.391296 0-199.877632-89.473024-199.877632-199.871488 0-110.37696 89.486336-199.870464 199.877632-199.870464 110.383104 0 199.856128 89.493504 199.856128 199.870464C720.621568 500.9152 631.148544 590.388224 520.76544 590.388224zM520.76544 218.358784c-95.076352 0-172.151808 77.075456-172.151808 172.158976 0 95.08352 77.075456 172.151808 172.151808 172.151808 95.069184 0 172.151808-77.068288 172.151808-172.151808C692.917248 295.43424 615.834624 218.358784 520.76544 218.358784zM595.257344 383.876096l-24.481792 26.150912 4.34688 34.803712c0.13824 0.871424 0.232448 1.770496 0.232448 2.664448 0 8.542208-6.908928 15.489024-15.429632 15.510528l-0.108544 0c-2.24256 0-4.493312-0.47104-6.591488-1.4592l-32.43008-15.212544-32.421888 15.212544c-5.124096 2.395136-11.149312 1.829888-15.714304-1.494016-4.58752-3.31776-6.996992-8.877056-6.29248-14.480384l4.463616-35.544064-24.50432-26.150912c-3.861504-4.108288-5.182464-10.023936-3.433472-15.401984 1.748992-5.378048 6.299648-9.363456 11.838464-10.430464l35.1744-6.757376 17.318912-31.384576c2.727936-4.93568 7.917568-8.020992 13.572096-8.020992 5.64736 0 10.865664 3.085312 13.587456 8.020992l17.297408 31.384576 35.1744 6.757376c5.567488 1.067008 10.089472 5.052416 11.838464 10.430464C600.439808 373.85216 599.118848 379.767808 595.257344 383.876096zM389.863424 758.04672c-19.8656 0-38.715392-11.570176-47.157248-30.826496l-37.916672-86.576128L181.456896 854.248448c-3.09248 5.384192-2.663424 12.135424 1.132544 17.07008 3.7888 4.943872 10.18368 7.120896 16.21504 5.50912l99.909632-26.768384 26.775552 99.9168c1.088512 4.028416 3.708928 7.353344 7.17824 9.356288 1.727488 1.001472 3.66592 1.661952 5.690368 1.931264 6.191104 0.821248 12.251136-2.169856 15.38048-7.5776l132.506624-229.53472-77.677568 30.347264C402.449408 756.914176 396.090368 758.04672 389.863424 758.04672zM729.193472 657.867776l-30.374912 69.352448c-11.083776 25.294848-40.16128 37.328896-65.8688 27.277312l-100.258816-39.164928L670.30016 953.684992c3.105792 5.407744 9.166848 8.398848 15.373312 7.5776 2.038784-0.269312 3.955712-0.929792 5.690368-1.931264 3.454976-2.002944 6.08256-5.327872 7.186432-9.356288l26.768384-99.9168 99.909632 26.768384c6.018048 1.611776 12.411904-0.565248 16.207872-5.50912 3.80416-4.934656 4.252672-11.685888 1.13152-17.07008L729.193472 657.867776z" /></svg>