<?xml version="1.0" standalone="no"?><!DOCTYPE svg PUBLIC "-//W3C//DTD SVG 1.1//EN" "http://www.w3.org/Graphics/SVG/1.1/DTD/svg11.dtd"><svg class="icon" width="16px" height="16.00px" viewBox="0 0 1024 1024" version="1.1" xmlns="http://www.w3.org/2000/svg"><path d="M500.622222 176.355556C347.022222 176.355556 221.866667 301.511111 221.866667 455.111111s125.155556 278.755556 278.755555 278.755556 278.755556-125.155556 278.755556-278.755556-125.155556-278.755556-278.755556-278.755555z m0 477.866666c-113.777778 0-199.111111-91.022222-199.111111-199.111111s91.022222-199.111111 199.111111-199.111111S705.422222 341.333333 705.422222 455.111111s-91.022222 199.111111-204.8 199.111111z"  /><path d="M762.311111 369.777778H563.2L500.622222 182.044444 438.044444 369.777778H238.933333L398.222222 489.244444l-56.888889 187.733334 159.288889-113.777778 159.288889 113.777778-62.577778-187.733334 164.977778-119.466666zM500.622222 500.622222l-79.644444 56.888889L455.111111 466.488889l-79.644444-56.888889h96.711111l28.444444-91.022222 28.444445 91.022222H625.777778l-79.644445 56.888889 28.444445 91.022222-73.955556-56.888889z"  /><path d="M284.444444 386.844444V307.2H34.133333l45.511111 79.644444h11.377778zM284.444444 477.866667V403.911111H85.333333l45.511111 73.955556zM284.444444 574.577778V500.622222H142.222222l39.822222 73.955556"  /><path d="M34.133333 307.2z"  /><path d="M722.488889 386.844444V307.2h250.311111l-45.511111 79.644444h-11.377778zM722.488889 477.866667V403.911111h193.422222l-39.822222 73.955556zM722.488889 574.577778V500.622222h142.222222l-45.511111 73.955556"  /><path d="M972.8 307.2z"  /></svg>