<?xml version="1.0" standalone="no"?><!DOCTYPE svg PUBLIC "-//W3C//DTD SVG 1.1//EN" "http://www.w3.org/Graphics/SVG/1.1/DTD/svg11.dtd"><svg class="icon" width="16px" height="16.00px" viewBox="0 0 1024 1024" version="1.1" xmlns="http://www.w3.org/2000/svg"><path d="M555.31 175.93l56.03-112.06h308.17L807.45 287.99c-63.26-63.65-154.75-102.4-252.14-112.06zM219.13 287.99L107.07 63.87h308.17l56.03 112.06c-97.44 9.84-189.14 48.38-252.14 112.06zM499.28 231.96c201.14 0 364.2 163.09 364.2 364.22 0 201.14-163.06 364.17-364.2 364.17s-364.2-162.98-364.2-364.17 163.06-364.22 364.2-364.22z m-91.69 320.98l-132.43-32.42 79.38 215.72h317.51l79.38-215.72-132.16 32.95-105.98-209.45-105.7 208.92z" /></svg>