<svg xmlns="http://www.w3.org/2000/svg" class="icon" viewBox="0 0 1154 1024" width="32" height="32" t="1577001101278" p-id="4723" version="1.1"><path d="M 1018.51 135.778 c -124.798 -117.586 -311.994 -125.43 -436.79 -7.843 c -132.576 -117.586 -319.75 -109.743 -444.548 7.843 c -124.797 125.45 -124.797 321.405 0 446.813 l 366.549 368.422 a 98.5 98.5 0 0 0 140.397 0 L 1010.71 582.59 c 132.597 -117.586 132.597 -321.384 7.8 -446.813 Z m -46.8 399.796 L 605.14 903.996 c -15.6 15.687 -31.199 15.687 -46.799 0 l -374.37 -368.422 c -101.397 -94.077 -101.397 -258.702 0 -352.757 c 93.577 -94.078 249.573 -94.078 350.971 -7.844 l 46.799 39.196 l 46.799 -39.196 c 101.398 -94.055 249.573 -86.234 350.97 7.844 c 85.799 101.899 85.799 258.68 -7.8 352.735 Z" p-id="4724" /></svg>