<svg xmlns="http://www.w3.org/2000/svg" class="icon" viewBox="0 0 1024 1024" width="32" height="32" t="1577002741689" p-id="5547" version="1.1"><path fill="#515151" d="M 1009.86 165.744 l -47.5603 47.2378 L 803.914 55.5729 l 47.5603 -47.1714 c 17.4539 -17.3887 44.9674 -18.3004 61.3176 -2.0119 l 99.014 98.3655 C 1028.22 121.04 1027.31 148.359 1009.86 165.744 L 1009.86 165.744 Z M 589.794 583.219 L 431.411 425.807 l 348.432 -346.225 l 158.385 157.41 L 589.794 583.219 L 589.794 583.219 Z M 567.734 605.149 l -221.711 62.936 l 63.3283 -220.35 L 567.734 605.149 L 567.734 605.149 Z M 198.601 126.428 c -54.7638 0 -99.0792 44.3154 -99.0792 99.014 l 0 594.344 c 0 54.6846 44.3305 99.0163 99.0163 99.0163 l 594.473 0 c 54.6858 0 99.0186 -44.3317 99.0186 -99.0186 L 892.029 423.536 l 99.0769 -99.0186 l 0 528.294 c 0 91.1643 -73.9036 165.067 -165.067 165.067 L 165.51 1017.88 c -91.1643 0 -165.067 -73.9036 -165.067 -165.067 L 0.443683 192.415 c 0 -91.1643 73.9036 -165.067 165.067 -165.067 l 528.425 0 l -99.0815 99.0815 L 198.601 126.43 L 198.601 126.428 Z" p-id="5548" /></svg>