<svg xmlns="http://www.w3.org/2000/svg" class="icon" viewBox="0 0 1024 1024" width="32" height="32" t="1576999519575" p-id="3901" version="1.1"><path d="M 817.9 797.2 V 955 L 662 859 c -21.6 3.5 -43.8 5.6 -66.6 5.6 c -107.1 0 -203 -41 -269.2 -105.7 c 10.9 0.6 21.7 1.4 32.8 1.4 c 15.5 0 30.9 -0.8 46 -2 c 52.3 36 118.4 57.6 190.4 57.6 c 24.8 0 48.8 -2.8 72 -7.7 l 54.2 36.1 c -0.1 0 -0.1 0.1 -0.2 0.1 l 40.9 27.1 V 773 c 83.7 -47.1 139.1 -128.6 139.1 -221.3 c 0 -58.6 -22.4 -112.6 -59.8 -156.5 c 2.5 -17.1 4.2 -34.4 4.2 -52.1 c 0 -8.1 -0.9 -16 -1.4 -24 C 913.6 376.8 957 458 957 548.2 c 0 101.3 -54.5 191.1 -139.1 249 Z m -389.3 -99.5 c -22.8 0 -45 -2.1 -66.6 -5.6 l -155.9 96 V 630.4 C 121.5 572.5 67 482.6 67 381.4 C 67 206.7 228.9 65 428.6 65 c 199.7 0 361.6 141.6 361.6 316.4 s -162 316.3 -361.6 316.3 Z m 0 -577.1 c -169 0 -305.9 118.3 -305.9 264.2 c 0 92.7 55.4 174.1 139.1 221.3 v 98.5 l 40.9 -27.1 c -0.1 0 -0.1 -0.1 -0.2 -0.1 l 54.2 -36.1 c 23.1 4.8 47.1 7.7 72 7.7 c 169 0 305.9 -118.3 305.9 -264.2 c -0.1 -145.9 -137.1 -264.2 -306 -264.2 Z m 180.7 306 c -23 0 -41.7 -18.7 -41.7 -41.7 c 0 -23 18.7 -41.7 41.7 -41.7 c 23 0 41.7 18.7 41.7 41.7 c 0.1 23 -18.6 41.7 -41.7 41.7 Z m -166.8 0 c -23 0 -41.7 -18.7 -41.7 -41.7 c 0 -23 18.7 -41.7 41.7 -41.7 s 41.7 18.7 41.7 41.7 c 0 23 -18.7 41.7 -41.7 41.7 Z m -166.9 0 c -23 0 -41.7 -18.7 -41.7 -41.7 c 0 -23 18.7 -41.7 41.7 -41.7 s 41.7 18.7 41.7 41.7 c 0 23 -18.7 41.7 -41.7 41.7 Z" p-id="3902" /></svg>