<svg xmlns="http://www.w3.org/2000/svg" class="icon" viewBox="0 0 1024 1024" width="64" height="64" t="1576828774444" p-id="6432" version="1.1"><path d="M 699.982 639.529 h -248.727 a 31.97 31.97 0 1 0 0 63.94 h 248.727 a 31.97 31.97 0 1 0 0 -63.94 Z m 0 -190.669 h -248.727 a 31.97 31.97 0 1 0 0 63.94 h 248.727 a 31.97 31.97 0 1 0 0 -63.94 Z m 154.543 -448.731 H 168.832 A 136.512 136.512 0 0 0 31.6806 136.001 v 887.04 h 63.94 l 141.691 -101.92 l 137.151 101.92 l 137.151 -101.92 l 137.151 101.92 l 137.151 -101.92 L 927.48 1023.04 h 63.94 V 136.001 a 136.512 136.512 0 0 0 -136.896 -135.873 Z m 72.5719 953.857 l -138.494 -103.007 l -138.494 108.698 l -138.494 -108.698 l -138.494 108.698 l -138.494 -108.698 L 96.26 955.073 V 132.165 A 68.6716 68.6716 0 0 1 165.507 64.0685 h 692.342 a 68.6716 68.6716 0 0 1 69.247 68.0961 v 821.821 Z M 699.982 255.953 h -248.727 a 31.97 31.97 0 1 0 0 63.94 h 248.727 a 31.97 31.97 0 1 0 0 -63.94 Z M 320.05 256.72 a 31.97 31.97 0 1 1 -31.97 31.97 a 31.97 31.97 0 0 1 31.97 -31.97 Z m 0 191.82 a 31.97 31.97 0 1 1 -31.97 31.97 a 31.97 31.97 0 0 1 31.97 -31.97 Z m 0 191.82 a 31.97 31.97 0 1 1 -31.97 31.97 a 31.97 31.97 0 0 1 31.97 -31.97 Z" p-id="6433" /></svg>