<svg xmlns="http://www.w3.org/2000/svg" class="icon" viewBox="0 0 1024 1024" width="48" height="48" t="1577424891466" p-id="2473" version="1.1"><path d="M 683.927 985.658 a 44.7297 44.7297 0 0 0 25.5598 31.9498 a 31.9498 31.9498 0 0 0 44.7297 -6.38996 l 255.598 -249.208 a 31.9498 31.9498 0 0 0 12.7799 -25.5598 c 0 -12.7799 0 -19.1699 -6.38996 -25.5598 h -6.38996 a 51.1197 51.1197 0 0 0 -57.5096 0 L 766.996 883.419 V 39.9443 a 38.3398 38.3398 0 0 0 -38.3398 -38.3398 a 44.7297 44.7297 0 0 0 -44.7297 38.3398 v 945.714 Z m -338.668 38.3398 l 31.9498 -12.7799 l 12.7799 -25.5598 V 39.9443 a 51.1197 51.1197 0 0 0 -25.5598 -38.3398 a 44.7297 44.7297 0 0 0 -44.7297 12.7799 L 12.9809 308.323 a 38.3398 38.3398 0 0 0 0 57.5096 a 38.3398 38.3398 0 0 0 57.5096 0 l 236.429 -223.649 v 843.475 a 38.3398 38.3398 0 0 0 38.3398 38.3398 Z" p-id="2474" /></svg>