<svg xmlns="http://www.w3.org/2000/svg" class="icon" viewBox="0 0 1024 1024" width="64" height="64" t="1576802210039" p-id="1937" version="1.1"><path d="M 219.429 950.857 H 804.57 V 621.714 a 36.571 36.571 0 1 1 73.143 0 V 987.43 a 36.571 36.571 0 0 1 -36.57 36.57 H 182.857 a 36.571 36.571 0 0 1 -36.571 -36.571 V 621.714 a 36.571 36.571 0 0 1 73.143 0 v 329.143 Z M 512 98.231 L 72.411 537.819 a 36.571 36.571 0 1 1 -51.785 -51.712 l 465.481 -465.48 a 36.571 36.571 0 0 1 51.786 0 l 465.48 465.48 a 36.571 36.571 0 1 1 -51.784 51.786 L 512 98.304 Z" p-id="1938" /></svg>