<svg xmlns="http://www.w3.org/2000/svg" class="icon" viewBox="0 0 1110 1024" width="32" height="32" t="1576802331095" p-id="2712" version="1.1"><path d="M 1040.75 474.621 a 28.3791 28.3791 0 0 0 -28.3791 28.3791 v 320.735 c 0 79.1094 -60.0408 143.477 -133.838 143.477 H 190.776 c -73.7976 0 -133.838 -64.3678 -133.838 -143.477 V 236.487 c 0 -79.1094 60.0408 -143.507 133.838 -143.507 h 444.636 a 28.3791 28.3791 0 0 0 0 -56.6985 h -444.636 C 85.6745 36.2815 0.149207 126.134 0.149207 236.577 v 587.158 c 0 110.413 85.5253 200.265 190.626 200.265 h 687.724 c 105.101 0 190.626 -89.8224 190.626 -200.265 V 503 a 28.3791 28.3791 0 0 0 -28.3791 -28.3791 Z" p-id="2713" /><path d="M 1085.39 109.96 L 1000.82 25.3894 a 86.898 86.898 0 0 0 -122.767 0 L 323.57 579.931 l -60.7271 266.304 l 268.124 -58.877 l 554.452 -554.571 a 86.9278 86.9278 0 0 0 -0.029842 -122.827 Z m -683.367 471.642 L 826.396 157.348 l 127.035 127.035 l -424.254 424.314 Z m -31.781 48.522 l 110.085 110.085 l -142.313 31.2737 Z m 675.011 -437.474 l -51.7449 51.5957 l -127.035 -127.035 l 51.5957 -51.5957 a 30.0801 30.0801 0 0 1 42.4642 0 l 84.5704 84.5704 a 30.0502 30.0502 0 0 1 0.149207 42.4642 Z" p-id="2714" /></svg>