<svg xmlns="http://www.w3.org/2000/svg" class="icon" viewBox="0 0 1024 1024" width="32" height="32" t="1576802452336" p-id="3546" version="1.1"><path d="M 1009.78 366.933 c -16.3556 -58.3111 -85.3333 -97.4222 -184.178 -114.489 c 14.9333 17.7778 27.7333 36.2667 39.8222 55.4667 c 54.7556 15.6444 91.7333 40.5333 100.267 70.4 c 4.97778 17.7778 0.711111 38.4 -12.8 61.1556 c -14.2222 24.8889 -40.5333 53.3333 -76.8 81.0667 v -5.68889 c 0 -200.533 -162.844 -363.378 -363.378 -363.378 C 312.178 151.467 149.333 314.311 149.333 514.844 c 0 59.0222 14.2222 117.333 41.9556 169.956 c -71.8222 -14.9333 -120.889 -42.6667 -131.556 -78.2222 c -2.84444 -16.3556 1.42222 -36.9778 14.2222 -59.7333 c 7.11111 -12.8 18.4889 -26.3111 31.2889 -39.8222 c 0.711111 -23.4667 2.84444 -46.2222 7.11111 -68.9778 C 39.1111 497.778 2.13333 563.2 17.7778 620.089 c 17.7778 63.2889 96.7111 103.822 208.356 118.044 c 66.1333 86.0444 170.667 141.511 287.289 141.511 c 178.489 0 326.4 -128 356.978 -297.244 c 103.111 -68.2667 158.578 -147.2 139.378 -215.467 Z m -495.644 467.2 c -83.2 0 -163.556 -32.7111 -222.578 -91.7333 c 7.82222 0 15.6444 0.711111 23.4667 0.711111 c 78.9333 0 167.822 -11.3778 259.556 -34.8444 c 91.0222 -23.4667 173.511 -56.1778 241.778 -93.1556 c -41.9556 127.289 -161.422 219.022 -302.222 219.022 Z M 829.156 554.667 c -66.8444 41.9556 -156.444 81.7778 -265.956 109.511 c -85.3333 22.0444 -170.667 33.4222 -248.889 33.4222 c -22.7556 0 -43.3778 2.13333 -64 0 c -34.8444 -51.2 -54.7556 -115.911 -54.7556 -182.044 c 0 -175.644 142.222 -317.867 317.867 -317.867 s 317.867 142.222 317.867 317.867 c 0.711111 13.5111 -0.711111 26.3111 -2.13333 39.1111 Z m -474.311 52.6222 c -36.9778 0 -69.6889 -22.0444 -83.9111 -56.1778 c -14.2222 -34.1333 -6.4 -73.2444 19.9111 -98.8444 c 26.3111 -26.3111 64.7111 -33.4222 98.8444 -19.9111 c 34.1333 14.2222 56.1778 46.9333 56.1778 83.9111 c 0 50.4889 -40.5333 91.0222 -91.0222 91.0222 Z m 0 -136.533 c -18.4889 0 -34.8444 11.3778 -41.9556 27.7333 c -7.11111 17.0667 -2.84444 36.2667 9.95555 49.7778 c 12.8 12.8 32.7111 17.0667 49.7778 9.95555 c 17.0667 -7.11111 27.7333 -23.4667 27.7333 -41.9556 c 0 -24.8889 -20.6222 -45.5111 -45.5111 -45.5111 Z m 193.422 -113.067 c -22.7556 0 -43.3778 -13.5111 -52.6222 -34.8444 c -8.53333 -21.3333 -4.26667 -45.5111 12.0889 -61.8667 c 16.3556 -16.3556 40.5333 -21.3333 61.8667 -12.0889 c 21.3333 8.53333 34.8444 29.8667 34.8444 52.6222 c 0.711111 30.5778 -24.8889 56.1778 -56.1778 56.1778 Z m 0 -68.2667 c -4.97778 0 -9.95556 3.55556 -10.6667 8.53333 c -1.42222 4.97778 0.711111 9.95556 4.97778 12.8 c 4.26667 2.84444 9.95556 2.13333 13.5111 -2.13333 c 3.55556 -3.55556 4.26667 -7.82222 2.13333 -12.0889 c -1.42222 -4.26667 -5.68889 -7.11111 -9.95555 -7.11111 Z M 672.711 561.778 c -18.4889 0 -34.8444 -11.3778 -41.9556 -27.7333 c -7.11111 -17.0667 -2.84444 -36.2667 9.95555 -49.7778 c 12.8 -12.8 32.7111 -17.0667 49.7778 -9.95556 c 17.0667 7.11111 27.7333 23.4667 27.7333 41.9556 c 0 12.0889 -4.97778 23.4667 -13.5111 32 c -7.82222 8.53333 -19.9111 13.5111 -32 13.5111 Z m 0 0" p-id="3547" /></svg>