<svg xmlns="http://www.w3.org/2000/svg" class="icon" viewBox="0 0 1024 1024" width="32" height="32" t="1576802621147" p-id="6288" version="1.1"><path d="M 930.921 521.149 c 0 -230.945 -187.933 -418.809 -418.93 -418.809 c -230.997 0 -418.912 187.864 -418.912 418.809 c 0 119.988 50.816 228.285 131.971 304.709 l -0.293888 0.362496 l 10.5851 9.30714 c 1.4336 1.26054 2.98701 2.33062 4.43802 3.55738 c 7.44243 6.38874 15.0569 12.5706 22.9478 18.4238 c 2.19238 1.62304 4.43802 3.16006 6.66522 4.74829 c 8.4439 6.00883 17.0424 11.8108 25.9174 17.1981 c 1.39878 0.845824 2.84877 1.62304 4.26496 2.45146 c 9.39315 5.54291 18.9932 10.7745 28.8358 15.5924 c 0.55296 0.27648 1.08749 0.569344 1.64045 0.845824 c 10.5851 5.12819 21.463 9.73824 32.514 13.9684 c 0.812032 0.311296 1.60563 0.638976 2.40026 0.949248 c 10.8268 4.0745 21.8941 7.64928 33.1182 10.8268 c 1.0537 0.293888 2.08896 0.60416 3.14266 0.898048 c 11.0162 3.02182 22.2054 5.59411 33.5493 7.71789 c 1.29536 0.241664 2.57229 0.46592 3.86765 0.690176 c 11.2067 1.98554 22.5505 3.59117 34.05 4.66227 c 1.27795 0.120832 2.5559 0.18944 3.81645 0.293888 c 11.7074 0.984064 23.5172 1.60563 35.4836 1.60563 c 11.9665 0 23.7763 -0.621568 35.4836 -1.60563 c 1.26054 -0.103424 2.52109 -0.173056 3.78163 -0.293888 c 11.5169 -1.07008 22.8782 -2.67674 34.1197 -4.66227 c 1.24314 -0.224256 2.48627 -0.432128 3.74682 -0.673792 c 11.4135 -2.14118 22.654 -4.71347 33.7224 -7.7527 c 0.966656 -0.259072 1.93434 -0.55296 2.90099 -0.828416 c 11.3275 -3.19488 22.4819 -6.82086 33.4111 -10.9302 c 0.656384 -0.241664 1.31277 -0.518144 1.96813 -0.777216 c 11.2241 -4.28237 22.2403 -8.96102 32.9626 -14.1763 c 0.32768 -0.155648 0.638976 -0.32768 0.966656 -0.500736 c 10.1878 -4.97254 20.0991 -10.3772 29.8025 -16.127 c 1.19194 -0.707584 2.41766 -1.36397 3.60858 -2.07155 c 9.09926 -5.5081 17.8883 -11.4309 26.5216 -17.5954 c 2.02035 -1.4336 4.05811 -2.83136 6.04365 -4.29978 c 8.08038 -5.99142 15.9027 -12.329 23.5172 -18.8897 c 1.32915 -1.13971 2.76275 -2.12378 4.0745 -3.2809 l 10.5503 -9.30714 l -0.27648 -0.32768 C 880.087 749.47 930.921 641.155 930.921 521.149 Z M 121.794 521.149 c 0 -215.094 175.052 -390.094 390.197 -390.094 s 390.197 174.983 390.197 390.094 c 0 111.51 -47.1214 212.176 -122.422 283.333 c -27.6101 -26.6772 -70.0344 -48.8653 -120.16 -62.7139 c -22.6714 -9.99731 -27.7309 -12.4498 -33.4459 -17.0076 l -6.07744 -6.06106 c -9.15149 -8.89242 -14.1937 -13.7789 -15.9724 -27.0223 l 0 -59.9511 c 16.0758 -18.7003 26.2625 -43.5988 36.2435 -76.4232 c 13.5199 -5.16301 26.9711 -22.2228 31.2361 -41.216 c 4.54144 -20.4954 2.38285 -37.6934 -5.42208 -47.2596 c 22.0498 -83.33 18.6655 -154.522 -9.42797 -191.749 c -14.7804 -19.5983 -36.2783 -29.9756 -62.1783 -29.993 c -2.38285 -1.95072 -3.95366 -4.0919 -5.92282 -6.76864 c -10.1181 -13.8312 -20.8927 -23.638 -67.7212 -23.638 l -5.02477 0.034816 c -56.2555 0 -98.9051 16.939 -126.756 50.3849 c -35.7253 42.8216 -45.8435 111.13 -30.1824 203.128 c -6.73382 9.61741 -8.78899 25.728 -5.18042 44.842 c 3.40173 17.8545 14.677 34.0326 27.3336 40.6804 c 12.3116 35.8113 25.1402 60.6935 39.8694 77.3734 c 0.845824 27.1258 1.1223 57.7229 0.052224 63.5249 c -1.57082 8.40909 -6.09485 16.1444 -14.2797 24.3118 c -7.66669 7.66669 -17.9057 13.2782 -39.1608 21.7385 c -52.3878 14.4353 -95.4685 36.8128 -123.338 63.7317 C 168.915 733.308 121.794 632.66 121.794 521.149 Z M 754.298 826.567 c -6.40614 5.07699 -12.9157 9.9625 -19.5983 14.6074 c -1.51962 1.0537 -2.9696 2.176 -4.50662 3.21126 c -7.80493 5.28384 -15.8341 10.1878 -23.9841 14.8664 c -1.70906 0.984064 -3.41914 2.00294 -5.1456 2.9696 c -8.37427 4.64486 -16.9042 8.97843 -25.5898 12.9843 c -1.39878 0.656384 -2.81395 1.27795 -4.23014 1.91693 c -9.20371 4.12672 -18.5272 7.94317 -28.0074 11.3439 c -0.483328 0.173056 -0.966656 0.311296 -1.4336 0.483328 c -19.8738 7.0103 -40.318 12.3802 -61.142 16.1096 c -1.20832 0.206848 -2.40026 0.448512 -3.62598 0.638976 c -9.82528 1.65786 -19.753 2.95219 -29.7339 3.85024 c -1.53702 0.13824 -3.09043 0.224256 -4.62746 0.362496 c -10.1878 0.812032 -20.4093 1.31277 -30.7005 1.31277 c -10.2912 0 -20.5128 -0.518144 -30.7005 -1.31277 c -1.55443 -0.120832 -3.10784 -0.206848 -4.64486 -0.362496 c -9.9799 -0.898048 -19.8738 -2.19238 -29.7165 -3.85024 c -1.22573 -0.206848 -2.43507 -0.432128 -3.6608 -0.656384 c -20.7544 -3.712 -41.1474 -9.06547 -60.9526 -16.0584 c -0.55296 -0.190464 -1.1223 -0.362496 -1.67526 -0.570368 c -9.39315 -3.36691 -18.6307 -7.16595 -27.7484 -11.2404 c -1.53702 -0.690176 -3.07302 -1.38138 -4.59264 -2.07155 c -8.54733 -3.95366 -16.9564 -8.21862 -25.2099 -12.7949 c -1.91693 -1.0537 -3.79904 -2.176 -5.68115 -3.26349 c -7.95955 -4.59264 -15.7993 -9.39315 -23.4486 -14.5388 c -1.7961 -1.20832 -3.52256 -2.52109 -5.28384 -3.76422 c -6.28531 -4.4032 -12.4498 -9.01325 -18.4924 -13.7789 c -1.46739 -1.15712 -2.95219 -2.27942 -4.4032 -3.47034 c 24.4152 -22.8782 62.7476 -42.2349 110.853 -55.5653 c 23.3103 -9.20371 38.2464 -16.4731 50.3849 -28.629 c 12.3116 -12.3116 19.5809 -25.2273 22.2228 -39.4199 c 2.20979 -12.1559 0.724992 -60.5553 0.224256 -75.1114 l -0.18944 -5.61152 l -3.95366 -3.97107 c -14.0902 -14.2275 -26.539 -38.7297 -39.2305 -77.0621 l -0.88064 -9.94611 l -10.7919 0.432128 c -2.5559 -1.15712 -10.2738 -9.30714 -12.4498 -20.8753 c -1.91693 -10.1181 -1.26054 -17.4572 -0.345088 -21.0309 l 9.53139 -1.60563 l -2.6071 -14.3483 c -15.9724 -87.1117 -8.35686 -150.118 22.6191 -187.294 c 22.1706 -26.5738 57.3778 -40.0415 104.897 -40.0415 l 4.8343 -0.052224 c 35.8636 0 39.6964 5.24902 44.5481 11.8794 c 3.41914 4.67968 8.1152 11.0684 17.4746 16.6103 l 3.69562 2.19238 l 7.80493 -0.27648 c 17.0598 0 29.9407 6.07744 39.3687 18.5795 c 23.466 31.0979 24.2084 98.7668 1.96813 176.624 l -2.29683 13.7964 l 10.9476 3.47034 c 0.863232 3.31571 1.44998 10.9302 -0.898048 21.5665 c -1.93434 8.63334 -6.90688 15.2812 -10.3772 18.5272 l -11.7074 -8.78899 l -5.80198 19.9608 c -10.239 35.2594 -20.3059 62.1261 -36.2435 78.6852 l -4.00589 4.16154 l 0.120832 73.0563 c 3.10784 25.0194 14.0032 35.6045 24.5535 45.8435 l 6.70003 6.54438 c 10.1007 8.27085 17.9579 11.9142 43.2015 22.8782 c 46.3268 12.9331 84.0724 32.1167 108.229 54.7707 C 756.905 824.546 755.593 825.548 754.298 826.567 Z" p-id="6289" /></svg>