<svg xmlns="http://www.w3.org/2000/svg" class="icon" viewBox="0 0 1024 1024" width="32" height="32" t="1576842762196" p-id="10044" version="1.1"><path d="M 678.4 185.6 C 640 147.2 582.4 128 518.4 128 c -32 0 -64 6.4 -89.6 12.8 c -32 12.8 -57.6 25.6 -83.2 51.2 c -19.2 19.2 -38.4 44.8 -51.2 70.4 c -12.8 25.6 -19.2 64 -19.2 115.2 v 12.8 h 128 v -12.8 c 0 -83.2 44.8 -128 115.2 -128 c 32 0 51.2 6.4 64 25.6 c 12.8 19.2 25.6 32 25.6 57.6 c 0 64 -38.4 70.4 -70.4 115.2 c -70.4 96 -76.8 192 -76.8 230.4 v 25.6 h 128 s 0 -121.6 64 -192 c 32 -38.4 57.6 -64 70.4 -83.2 c 12.8 -25.6 19.2 -51.2 19.2 -83.2 c 6.4 -64 -19.2 -121.6 -64 -160 Z M 467.2 768 h 128 v 128 h -128 Z" p-id="10045" /></svg>