<svg xmlns="http://www.w3.org/2000/svg" class="icon" viewBox="0 0 1028 1024" width="48" height="48" t="1576829101830" p-id="7982" version="1.1"><path d="M 512.277 954.412 c -118.89 0 -230.659 -46.078 -314.73 -129.73 S 67.12 629.666 67.12 511.222 s 46.327 -229.744 130.398 -313.427 s 195.82 -129.73 314.73 -129.73 s 230.659 46.078 314.72 129.73 S 957.397 392.81 957.397 511.183 S 911.078 740.96 826.97 824.642 s -195.8 129.77 -314.692 129.77 Z m 0 -822.784 c -101.972 0 -197.809 39.494 -269.865 111.222 s -111.7 166.997 -111.7 268.373 s 39.653 196.695 111.67 268.335 S 410.246 890.78 512.248 890.78 s 197.809 -39.484 269.865 -111.222 s 111.7 -166.998 111.67 -268.374 c -0.03 -101.375 -39.654 -196.665 -111.67 -268.303 S 614.22 131.628 512.277 131.628 Z m 222.585 347.8 H 544.073 V 288.64 c -0.76 -17.561 -15.613 -31.18 -33.173 -30.419 c -16.495 0.714 -29.704 13.924 -30.419 30.419 v 190.787 H 289.703 c -17.56 0.761 -31.179 15.614 -30.419 33.174 c 0.715 16.494 13.924 29.703 30.42 30.418 H 480.48 v 190.788 c 0.761 17.56 15.614 31.179 33.174 30.419 c 16.494 -0.715 29.703 -13.925 30.418 -30.42 V 543.02 h 190.788 c 17.56 0.762 32.413 -12.857 33.173 -30.418 c 0.762 -17.561 -12.858 -32.414 -30.419 -33.174 a 31.683 31.683 0 0 0 -2.753 0 Z" p-id="7983" /></svg>