<svg xmlns="http://www.w3.org/2000/svg" class="icon" viewBox="0 0 1024 1024" width="32" height="32" t="1576835091708" p-id="9040" version="1.1"><path d="M 905.1 871.3 L 741.5 707.6 c 55.2 -67 88.3 -152.8 88.3 -246.3 c 0 -214 -173.5 -387.5 -387.5 -387.5 S 54.8 247.3 54.8 461.4 s 173.5 387.5 387.5 387.5 c 87.7 0 168.6 -29.1 233.5 -78.3 l 165 165 c 17.8 17.8 46.6 17.8 64.3 0 c 17.8 -17.8 17.8 -46.6 0 -64.3 Z M 127.9 461.4 c 0 -173.6 140.8 -314.4 314.4 -314.4 s 314.4 140.8 314.4 314.4 s -140.8 314.4 -314.4 314.4 S 127.9 635 127.9 461.4 Z" p-id="9041" /></svg>