<svg xmlns="http://www.w3.org/2000/svg" class="icon" viewBox="0 0 1024 1024" width="32" height="32" t="1576828890426" p-id="7206" version="1.1"><path d="M 696.858 552.163 L 545.544 552.163 L 545.544 400.749 c 0 -11.8837 -9.59452 -21.5171 -21.6163 -21.5171 c -11.9379 0 -21.6163 9.84932 -21.6163 21.5171 l 0 172.405 c -0.005117 0.207731 -0.005117 0.416486 0 0.62524 l 0 0.099261 c 0 5.94132 2.39863 11.3208 7.00044 15.629 c 4.0615 3.80363 9.3919 5.98327 14.6159 5.88708 l 172.931 0 c 11.3055 -2.68925 21.8455 -11.8888 21.6163 -21.6163 C 718.239 560.93 707.333 551.969 696.858 552.163 Z" p-id="7207" /><path d="M 723.556 296.639 l 25.3452 -25.3452 c 8.52107 -8.52107 8.64387 -22.2129 0.143263 -30.7135 c -8.44125 -8.44228 -22.0615 -8.50879 -30.7125 0.143263 l -30.2837 30.2837 c -0.304945 0.304945 -0.599657 0.617054 -0.884137 0.935302 c -42.1039 -24.5798 -90.2484 -39.9376 -141.664 -43.3145 c 0.01228 -0.304945 0.045025 -0.604774 0.045025 -0.912789 l 0 0 l 0 -42.8274 l 0 0 c 0 -0.067538 0 -0.135076 -0.001023 -0.202615 l 43.2981 0 c 3.67469 0 7.157 -0.945535 10.2095 -2.60943 c 6.10402 -3.32779 10.4838 -9.53005 11.2298 -16.7976 c 0.074701 -0.726547 0.112564 -1.46435 0.112564 -2.21034 c 0 -1.50324 -0.150426 -2.96759 -0.437975 -4.38077 s -0.710175 -2.77418 -1.2556 -4.06867 c -0.74906 -1.77851 -1.74167 -3.42091 -2.91335 -4.91392 c -0.534166 -0.681522 -1.09494 -1.34155 -1.70585 -1.95349 c -0.610914 -0.610914 -1.26992 -1.17066 -1.95042 -1.70483 c -1.49096 -1.17066 -3.12927 -2.16225 -4.90061 -2.90824 c -1.12461 -0.473791 -2.30449 -0.836041 -3.5171 -1.1154 c -0.87288 -0.201591 -1.75906 -0.36839 -2.66878 -0.460488 c -0.724501 -0.073678 -1.45923 -0.110517 -2.20318 -0.110517 L 459.015 141.452 l 0 0 c -10.2893 0 -19.0734 7.40976 -21.1088 17.2601 c -0.290619 1.40705 -0.444115 2.86423 -0.444115 4.35621 c 0 0.751107 0.037862 1.493 0.11154 2.22364 c 0.092098 0.916882 0.25992 1.80921 0.462534 2.6872 c 0.222057 0.966001 0.51063 1.90335 0.856507 2.81307 c 0.778736 2.05071 1.85116 3.94689 3.17737 5.63842 c 0.534166 0.681522 1.09494 1.34155 1.70585 1.95349 c 0.610914 0.610914 1.26992 1.17066 1.95042 1.70483 c 1.68948 1.32621 3.58157 2.39658 5.62307 3.17225 c 0.904603 0.343831 1.83581 0.63138 2.79465 0.852414 c 1.56771 0.361227 3.19374 0.571005 4.87196 0.571005 l 0 0 l 43.2971 0 c -0.001023 0.067538 -0.001023 0.135076 -0.001023 0.202615 l 0 0 l 0 42.8274 l 0 0 c 0 0.309038 0.032746 0.607844 0.045025 0.912789 c -51.416 3.37691 -99.5605 18.7347 -141.664 43.3145 c -0.283456 -0.318248 -0.578168 -0.630357 -0.884137 -0.935302 l -30.2837 -30.2837 c -8.65205 -8.65103 -22.2712 -8.58452 -30.7135 -0.143263 c -8.5006 8.5006 -8.37781 22.1924 0.143263 30.7135 l 25.3452 25.3452 c -75.8577 59.3477 -124.616 151.742 -124.616 255.523 c 0 179.074 145.169 324.244 324.244 324.244 S 848.172 731.237 848.172 552.163 C 848.172 448.381 799.414 355.988 723.556 296.639 Z M 523.928 833.174 c -155.199 0 -281.011 -125.813 -281.011 -281.011 s 125.813 -281.011 281.011 -281.011 S 804.94 396.964 804.94 552.163 S 679.126 833.174 523.928 833.174 Z" p-id="7208" /></svg>