<svg xmlns="http://www.w3.org/2000/svg" class="icon" viewBox="0 0 1024 1024" width="48" height="48" t="1576818804232" p-id="3725" version="1.1"><path fill="#396eb0" d="M 1546.24 -62.976" p-id="3726" /><path fill="#396eb0" d="M 1441.15 -64" p-id="3727" /><path fill="#396eb0" d="M 875.008 0 c -82.24 0 -148.992 66.688 -148.992 148.992 c 0 10.368 1.088 20.48 3.136 30.272 L 258.816 382.144 C 231.616 352.128 192.704 332.992 148.992 332.992 C 66.752 332.992 0 399.744 0 481.984 c 0 82.24 66.752 148.992 148.992 148.992 c 34.176 0 65.344 -12.032 90.496 -31.36 l 318.912 231.104 c -4.352 14.08 -7.424 28.736 -7.424 44.224 c 0 82.24 66.752 148.992 148.992 148.992 s 148.992 -66.752 148.992 -148.992 s -66.752 -148.992 -148.992 -148.992 c -43.584 0 -82.432 19.072 -109.696 48.896 L 280.704 550.336 c 10.688 -20.544 17.344 -43.584 17.344 -68.288 c 0 -15.36 -3.008 -29.952 -7.36 -43.904 l 465.088 -200.704 c 27.136 36.544 70.272 60.544 119.232 60.544 C 957.248 297.984 1024 231.232 1024 148.992 C 1024 66.688 957.248 0 875.008 0 Z M 700.032 790.016 c 46.848 0 84.992 38.08 84.992 84.992 S 746.88 960 700.032 960 c -46.912 0 -84.992 -38.08 -84.992 -84.992 S 653.056 790.016 700.032 790.016 Z M 148.992 566.976 C 102.08 566.976 64 528.96 64 481.984 s 38.08 -84.992 84.992 -84.992 c 46.848 0 84.992 38.08 84.992 84.992 S 195.904 566.976 148.992 566.976 Z M 875.008 233.984 c -46.912 0 -84.992 -38.08 -84.992 -84.992 S 828.032 64 875.008 64 C 921.856 64 960 102.08 960 148.992 S 921.856 233.984 875.008 233.984 Z" p-id="3728" /></svg>