<svg xmlns="http://www.w3.org/2000/svg" class="icon" viewBox="0 0 1024 1024" width="32" height="32" t="1577436234968" p-id="5185" version="1.1"><path d="M 514 63.2 c -242.6 0 -439.3 200.6 -439.3 448.1 S 271.4 959.4 514 959.4 s 439.3 -200.6 439.3 -448.1 S 756.6 63.2 514 63.2 Z m 50.8 704.3 H 450 V 659.6 h 114.8 v 107.9 Z M 611.7 512 c -43.8 29.7 -63.3 58.6 -58.6 86.7 v 18.8 h -93.8 v -25.8 c -1.6 -48.4 18.8 -87.5 60.9 -117.2 c 39 -31.2 57.8 -59.4 56.3 -84.4 c -3.1 -32.8 -21.1 -50.8 -53.9 -53.9 c -43.8 0 -71.1 28.9 -82 86.7 l -105.5 -23.4 c 18.8 -106.2 86.7 -157.8 203.9 -154.7 c 96.9 4.7 149.2 48.4 157 131.3 c 3.2 50 -24.9 95.3 -84.3 135.9 Z" p-id="5186" /></svg>