<svg xmlns="http://www.w3.org/2000/svg" class="icon" viewBox="0 0 1024 1024" width="32" height="32" t="1577353492815" p-id="3205" version="1.1"><path d="M 512 992 c -264.704 0 -480 -215.296 -480 -480 S 247.296 32 512 32 c 17.664 0 32 14.336 32 32 l 0 416 L 960 480 c 17.664 0 32 14.336 32 32 C 992 776.704 776.704 992 512 992 Z M 480 97.216 C 265.472 113.6 96 293.376 96 512 c 0 229.376 186.624 416 416 416 c 218.624 0 398.4 -169.472 414.784 -384 L 512 544 C 494.336 544 480 529.664 480 512 L 480 97.216 Z" p-id="3206" /></svg>