<svg xmlns="http://www.w3.org/2000/svg" class="icon" viewBox="0 0 1024 1024" width="32" height="32" t="1577353532107" p-id="3997" version="1.1"><path d="M 509.521 959.516 c -246.916 0 -447.07 -200.843 -447.07 -448.6 c 0 -247.759 200.154 -448.596 447.07 -448.596 c 246.905 0 447.071 200.838 447.071 448.596 S 756.426 959.516 509.521 959.516 L 509.521 959.516 Z M 507.104 132.1 c -208.395 0 -377.307 169.501 -377.307 378.603 c 0 209.096 168.912 378.602 377.307 378.602 c 208.36 0 377.298 -169.509 377.298 -378.602 C 884.402 301.6 715.464 132.1 507.104 132.1 L 507.104 132.1 Z M 714.137 446.09 L 501.347 660.147 l 0 -0.021489 c -6.43762 6.47139 -15.2872 10.451 -25.1191 10.451 c -9.79099 0 -18.6805 -4.01955 -25.0966 -10.451 L 309.754 517.743 c -6.41204 -6.42636 -10.3692 -15.3035 -10.3692 -25.1119 c 0 -19.6864 15.9032 -35.6141 35.4657 -35.6141 c 9.81351 0 18.6866 3.99908 25.1181 10.4561 l 116.259 117.11 l 187.702 -188.793 c 6.42125 -6.45092 15.325 -10.4265 25.113 -10.4265 c 19.5687 0 35.4494 15.9257 35.4494 35.5671 C 724.491 430.763 720.532 439.652 714.137 446.09 L 714.137 446.09 Z" p-id="3998" /></svg>