<svg xmlns="http://www.w3.org/2000/svg" class="icon" viewBox="0 0 1025 1024" width="32" height="32" t="1577621848473" p-id="2534" version="1.1"><path d="M 582.088 0 c 47.4052 0.041277 94.7291 1.47973 141.969 4.31536 c 16.1345 0.959387 22.306 9.46378 18.5123 25.5169 c -2.25149 9.67267 -8.33928 14.6347 -18.2634 14.8849 C 676.901 45.9267 629.494 46.5722 582.088 46.656 c -6.46304 0 -11.4251 -2.64801 -14.8849 -7.94277 C 554.237 19.0339 559.198 6.12907 582.088 0 Z M 302.652 0 c 47.3652 0.041277 94.7291 0.771762 142.094 2.18895 c 10.8822 0.375249 17.1151 5.96271 18.6999 16.7611 c 2.41911 16.4271 -4.62807 24.9541 -21.139 25.5795 c -47.3226 1.33338 -94.6465 1.77243 -141.969 1.31337 c -5.46237 -0.041277 -9.69393 -2.37658 -12.6959 -7.00465 C 274.759 19.0752 279.762 6.12907 302.652 0 Z M 1017.75 565.75 c 4.00266 3.87882 6.024 8.58945 6.06652 14.1344 c 0.459055 47.3652 0.70797 94.7291 0.751749 142.096 c 0 2.29277 -0.396513 4.54426 -1.18829 6.75323 c -3.66993 10.507 -11.0073 15.3439 -22.0159 14.5109 c -14.2169 0.041277 -21.4717 -7.04718 -21.7632 -21.2641 c -1.00066 -47.3652 1.02068 -94.4589 6.06652 -141.281 C 988.003 559.017 998.698 554.035 1017.75 565.75 Z M 1017.75 286.315 c 4.00266 3.83629 6.024 8.54692 6.06652 14.1344 c 0.459055 47.3652 0.70797 94.7291 0.751749 142.094 c 0 2.37658 -0.3765 4.62807 -1.12575 6.75448 c -3.71121 10.4657 -11.0698 15.3014 -22.0771 14.5096 c -14.2169 0 -21.4717 -7.08845 -21.7632 -21.2641 c -1.00066 -47.3652 1.02068 -94.4589 6.06652 -141.281 C 988.003 279.582 998.698 274.598 1017.75 286.315 Z M 698.102 467.373 c 16.3021 0.333972 28.6853 7.52624 37.1484 21.5768 c 6.58812 10.8822 8.17292 22.4737 4.7544 34.7731 c -5.71254 20.3472 -18.9713 31.2495 -39.7776 32.708 c -48.9075 4.21154 -97.0019 5.04585 -144.283 2.50166 c 0 47.3652 -0.230153 94.7504 -0.687956 142.157 c -0.126334 12.008 -4.44045 22.181 -12.9473 30.5203 c -0.582887 0.541609 -1.16702 1.08322 -1.74991 1.62608 c -13.0086 11.2987 -27.831 14.302 -44.467 9.00597 c -19.972 -6.38048 -30.3114 -20.1183 -31.0206 -41.2148 c -1.54227 -47.3652 -2.31403 -94.7291 -2.31403 -142.096 c -46.5722 0 -93.1456 -0.145096 -139.718 -0.43779 c -3.08455 0 -6.15033 -0.250166 -9.1936 -0.750498 c -5.96271 -0.875581 -11.3413 -3.21088 -16.1357 -7.0059 c -22.3486 -17.678 -26.3925 -38.7757 -12.133 -63.292 c 7.3799 -12.5921 18.3034 -19.0964 32.7717 -19.5129 c 48.1157 -1.33464 96.2514 -2.0426 144.408 -2.12641 c 0.083806 -48.157 0.521596 -96.3139 1.31337 -144.471 c 0.16636 -9.33995 3.21088 -17.5529 9.13106 -24.6413 c 7.12973 -8.63073 16.157 -13.4464 27.0805 -14.4471 c 33.0219 -3.33596 51.5755 11.2575 55.6619 43.779 L 555.944 465.809 C 603.309 465.809 650.696 466.331 698.102 467.373 Z M 565.639 984.966 c 3.96138 -3.83505 8.67325 -5.79635 14.1344 -5.8789 c 47.3652 -0.584138 94.7291 -0.562873 142.096 0.062541 c 12.0492 0.167611 18.9701 6.1716 20.7638 18.012 c 2.46038 16.3433 -4.46046 24.7664 -20.7638 25.2668 c -47.3652 1.41719 -94.4589 -0.439041 -141.281 -5.56619 C 558.822 1014.69 553.839 1004.06 565.639 984.966 Z M 444.747 980.338 c 10.8822 0.375249 17.0951 5.98272 18.6374 16.8237 c 2.37658 16.3433 -4.62807 24.7664 -21.0139 25.2668 c -47.3652 1.41719 -94.7091 1.87625 -142.032 1.37591 c -5.46237 -0.041277 -9.69393 -2.35656 -12.6959 -6.94211 c -12.8835 -19.7218 -7.88023 -32.6266 15.01 -38.7132 C 350.018 978.19 397.381 978.919 444.747 980.338 Z M 0.764557 579.947 c 0.16636 -5.54618 2.50166 -9.75772 7.00465 -12.6346 c 19.9295 -13.0074 32.8555 -8.04784 38.7757 14.8849 c -0.041277 47.4052 -1.45972 94.7291 -4.25282 141.969 c -0.959387 16.1345 -9.46503 22.4099 -25.5169 18.825 c -8.75581 -2.08513 -13.3839 -7.58753 -13.8842 -16.511 C -0.027218 676.74 -0.736439 627.895 0.764557 579.947 Z M 0.88964 300.449 c 0.083806 -5.54618 2.35531 -9.75647 6.81702 -12.6334 c 19.9708 -12.9248 32.9168 -7.94277 38.8383 14.9474 c -0.041277 47.4065 -0.208889 94.8129 -0.500332 142.219 c 0 1.45972 -0.250166 2.89817 -0.750498 4.31536 c -3.62741 10.4657 -10.9448 15.2801 -21.9521 14.4471 c -14.2182 0.083806 -21.473 -6.98338 -21.7644 -21.2016 C 0.535655 395.178 0.305503 347.815 0.88964 300.449 Z" p-id="2535" /><path d="M 866.151 18.137 c 51.2015 -7.17101 89.6432 10.8822 115.327 54.1609 c 15.2601 25.8084 21.0139 53.6193 17.2615 83.4304 M 863.65 1000.04 c 59.2893 3.9201 101.087 -20.0546 125.396 -71.9227 c 6.08654 -13.0086 8.98596 -26.7052 8.69327 -41.0898 c -0.126334 -5.75507 -0.625415 -11.4451 -1.501 -17.0738 M 19.3394 864.949 c -3.79377 57.2042 19.4717 98.3352 69.7963 123.394 c 13.4252 6.67068 27.7271 10.0692 42.9035 10.193 c 6.67068 0.082555 13.3001 -0.250166 19.8882 -1.00066 M 21.841 150.725 c -4.75315 -47.0725 12.2994 -82.117 51.1589 -105.132 C 98.1004 30.7492 125.243 24.0997 154.429 25.642" p-id="2536" /></svg>